<?xml version="1.0" encoding="UTF-8"?>
<!DOCTYPE svg PUBLIC "-//W3C//DTD SVG 1.1//EN" "http://www.w3.org/Graphics/SVG/1.1/DTD/svg11.dtd">
<!-- Creator: CorelDRAW X7 -->
<svg xmlns="http://www.w3.org/2000/svg" xml:space="preserve" width="279.4mm" height="215.9mm" version="1.1" style="shape-rendering:geometricPrecision; text-rendering:geometricPrecision; image-rendering:optimizeQuality; fill-rule:evenodd; clip-rule:evenodd"
viewBox="0 0 27940 21590"
 xmlns:xlink="http://www.w3.org/1999/xlink">
 <defs>
  <style type="text/css">
   <![CDATA[
    .fil2 {fill:#014E96}
    .fil3 {fill:#75B610}
    .fil1 {fill:#014E96;fill-rule:nonzero}
    .fil0 {fill:#75B610;fill-rule:nonzero}
   ]]>
  </style>
 </defs>
 <g id="Camada_x0020_1">
  <metadata id="CorelCorpID_0Corel-Layer"/>
  <polygon class="fil0" points="5377,10054 5079,10054 5132,9972 4642,9327 4642,9975 4718,10055 4470,10055 4546,9975 4546,9200 4395,9001 4774,9001 4720,9086 5203,9729 5203,9079 5129,9000 5377,9000 5301,9079 5301,9973 "/>
  <path class="fil1" d="M5685 10511c-3,2 -6,4 -9,6 -4,2 -7,3 -11,4 -35,20 -76,37 -121,52 -46,15 -100,23 -163,23 -164,0 -302,-56 -413,-166 -111,-111 -167,-238 -167,-383 0,-145 56,-273 167,-384 111,-111 249,-167 413,-167 61,0 113,8 158,24 45,15 85,32 120,51 5,2 10,4 14,7 4,2 8,4 12,6l-67 195 -45 -109c-9,-21 -25,-37 -48,-49 -24,-11 -49,-18 -75,-22 -16,-3 -31,-5 -45,-6 -15,-1 -28,-2 -40,-2 -97,0 -172,47 -226,139 -53,92 -79,197 -79,316 0,118 26,223 79,316 54,92 129,139 226,139 12,0 25,-1 40,-2 16,-1 31,-3 46,-6 26,-5 50,-12 72,-23 22,-11 38,-26 47,-47l48 -110 67 198z"/>
  <path class="fil2" d="M6069 10192c-384,720 -1189,871 -1805,313 -377,-341 -436,-1047 -40,-1500 73,-84 289,-269 394,-289 -166,22 -378,174 -497,288 -133,128 -246,306 -299,489 -272,939 581,1731 1458,1480 190,-54 357,-158 496,-291 105,-100 273,-340 293,-490z"/>
  <path class="fil3" d="M3790 9227c449,-841 1388,-1017 2108,-366 440,398 510,1223 47,1752 -85,98 -338,314 -460,338 194,-26 442,-204 580,-337 156,-149 287,-357 349,-570 319,-1098 -678,-2022 -1702,-1729 -222,63 -417,184 -580,340 -122,117 -318,397 -342,572z"/>
 </g>
</svg>
