<?xml version="1.0" encoding="UTF-8"?>
<!DOCTYPE svg PUBLIC "-//W3C//DTD SVG 1.1//EN" "http://www.w3.org/Graphics/SVG/1.1/DTD/svg11.dtd">
<!-- Creator: CorelDRAW X7 -->
<svg xmlns="http://www.w3.org/2000/svg" xml:space="preserve" width="279.4mm" height="215.9mm" version="1.1" style="shape-rendering:geometricPrecision; text-rendering:geometricPrecision; image-rendering:optimizeQuality; fill-rule:evenodd; clip-rule:evenodd"
viewBox="0 0 27940 21590"
 xmlns:xlink="http://www.w3.org/1999/xlink">
 <defs>
  <style type="text/css">
   <![CDATA[
    .str0 {stroke:white;stroke-width:7.62}
    .fil4 {fill:none;fill-rule:nonzero}
    .fil6 {fill:#014E96}
    .fil5 {fill:#666666}
    .fil7 {fill:#75B610}
    .fil3 {fill:black;fill-rule:nonzero}
    .fil2 {fill:#014E96;fill-rule:nonzero}
    .fil1 {fill:#014E96;fill-rule:nonzero}
    .fil0 {fill:#75B610;fill-rule:nonzero}
    .fil8 {fill:#CCFF66;fill-rule:nonzero}
   ]]>
  </style>
 </defs>
 <g id="Camada_x0020_1">
  <metadata id="CorelCorpID_0Corel-Layer"/>
  <polygon class="fil0" points="5377,10054 5079,10054 5132,9972 4642,9327 4642,9975 4718,10055 4470,10055 4546,9975 4546,9200 4395,9001 4774,9001 4720,9086 5203,9729 5203,9079 5129,9000 5377,9000 5301,9079 5301,9973 "/>
  <path class="fil1" d="M5685 10511c-3,2 -6,4 -9,6 -4,2 -7,3 -11,4 -35,20 -76,37 -121,52 -46,15 -100,23 -163,23 -164,0 -302,-56 -413,-166 -111,-111 -167,-238 -167,-383 0,-145 56,-273 167,-384 111,-111 249,-167 413,-167 61,0 113,8 158,24 45,15 85,32 120,51 5,2 10,4 14,7 4,2 8,4 12,6l-67 195 -45 -109c-9,-21 -25,-37 -48,-49 -24,-11 -49,-18 -75,-22 -16,-3 -31,-5 -45,-6 -15,-1 -28,-2 -40,-2 -97,0 -172,47 -226,139 -53,92 -79,197 -79,316 0,118 26,223 79,316 54,92 129,139 226,139 12,0 25,-1 40,-2 16,-1 31,-3 46,-6 26,-5 50,-12 72,-23 22,-11 38,-26 47,-47l48 -110 67 198z"/>
  <path class="fil2" d="M8146 10004l-14 390c-32,12 -66,22 -102,30 -37,10 -74,17 -112,23 -37,6 -74,11 -111,15 -36,3 -70,5 -102,5 -101,0 -191,-18 -272,-52 -80,-34 -149,-83 -205,-147 -56,-63 -99,-140 -129,-231 -30,-91 -45,-193 -45,-307 0,-117 15,-222 47,-316 32,-95 77,-175 135,-242 59,-66 130,-118 213,-154 83,-36 176,-54 279,-54 29,0 59,2 92,5 32,3 65,7 98,13 33,5 66,12 99,20 32,8 64,17 94,26l12 361 -69 0c-6,-72 -19,-130 -39,-175 -20,-45 -46,-81 -76,-106 -30,-25 -64,-42 -102,-51 -38,-9 -79,-14 -122,-14 -43,0 -85,4 -123,12 -39,8 -75,22 -109,41 -33,20 -63,47 -89,80 -27,33 -49,74 -68,125 -18,51 -33,111 -43,180 -10,70 -15,151 -15,243 0,92 5,171 15,239 10,69 24,128 42,177 18,49 40,90 66,122 26,32 55,57 87,76 32,19 66,32 104,39 37,7 77,11 118,11 50,0 97,-6 139,-17 42,-12 80,-32 113,-61 32,-29 59,-69 80,-118 22,-49 36,-112 45,-188l69 0z"/>
  <polygon id="1" class="fil2" points="8659,10353 8807,10353 8807,10432 8333,10432 8333,10353 8481,10353 8481,9078 8333,9078 8333,8999 8659,8999 "/>
  <path id="2" class="fil2" d="M9720 10166c-21,95 -62,168 -122,219 -61,50 -140,76 -236,76 -67,0 -126,-12 -178,-36 -52,-23 -96,-55 -132,-95 -36,-40 -64,-87 -83,-140 -19,-54 -29,-111 -29,-172 0,-62 10,-120 30,-176 19,-55 48,-103 84,-144 37,-41 81,-73 132,-97 50,-24 108,-36 171,-36 58,0 110,10 156,30 46,21 85,49 117,86 33,37 57,80 75,131 17,51 27,107 28,167l-595 0c-1,11 -1,19 -1,23 0,3 0,5 0,6 0,77 5,140 17,189 12,49 27,87 48,114 21,28 46,46 75,56 28,10 60,15 95,15 32,0 62,-5 91,-13 29,-9 54,-22 77,-41 24,-19 44,-43 61,-73 18,-30 32,-66 42,-108 13,1 26,3 40,7 13,3 25,7 37,12zm-186 -264c-2,-54 -8,-99 -18,-133 -9,-34 -22,-61 -38,-80 -15,-19 -34,-32 -56,-39 -21,-7 -44,-10 -70,-10 -27,0 -52,4 -75,11 -24,9 -45,22 -63,42 -19,20 -34,47 -46,80 -12,34 -21,77 -25,129l391 0z"/>
  <path id="3" class="fil2" d="M10751 10432c-28,6 -53,9 -77,10 -24,1 -42,2 -56,2 -35,0 -64,-3 -87,-8 -22,-6 -40,-14 -53,-24 -14,-11 -23,-24 -29,-39 -6,-15 -10,-31 -11,-50l-5 0c-19,26 -38,48 -59,65 -21,18 -43,32 -66,43 -23,10 -47,18 -71,22 -24,5 -48,8 -73,8 -40,0 -75,-6 -107,-17 -32,-11 -58,-26 -80,-46 -22,-20 -38,-43 -49,-71 -12,-27 -17,-57 -17,-90 0,-92 45,-162 134,-209 90,-48 220,-74 389,-77 1,-30 1,-56 2,-80 0,-23 0,-47 0,-70 0,-60 -12,-101 -37,-125 -25,-24 -64,-36 -117,-36 -35,0 -67,4 -95,11 -28,9 -51,19 -69,32 16,15 28,31 35,48 8,17 11,34 11,50 0,28 -8,51 -26,70 -18,18 -42,27 -73,27 -13,0 -26,-2 -39,-6 -12,-4 -23,-10 -32,-18 -9,-9 -17,-20 -22,-33 -6,-13 -9,-27 -9,-45 0,-27 8,-53 23,-78 14,-26 36,-48 66,-68 29,-20 65,-36 109,-47 44,-12 95,-18 154,-18 47,0 89,5 125,14 37,9 68,24 93,46 26,21 45,50 57,85 14,36 20,80 20,133 0,13 0,35 -1,65 0,30 0,63 -1,99 -1,37 -1,73 -2,110 0,38 0,71 0,99 0,29 1,53 2,73 1,19 4,35 10,46 5,12 13,20 23,25 11,5 26,7 45,7 16,0 38,-2 65,-6l0 71zm-317 -406c-72,2 -130,7 -174,16 -44,9 -78,22 -102,38 -25,16 -41,36 -50,59 -8,23 -13,49 -13,79 0,51 11,90 32,115 22,26 51,39 89,39 20,0 43,-5 68,-13 26,-9 50,-23 72,-42 22,-20 41,-46 56,-77 15,-32 22,-71 22,-118l0 -96z"/>
  <path id="4" class="fil2" d="M11175 10353l133 0 0 79 -458 0 0 -79 148 0 0 -683 -148 0 0 -79 325 0 0 144 4 0c27,-55 63,-97 109,-126 45,-30 104,-44 175,-44 91,0 158,23 202,69 44,47 66,113 66,199l0 520 143 0 0 79 -454 0 0 -79 133 0 0 -547c0,-52 -12,-91 -36,-115 -25,-25 -59,-37 -103,-37 -33,0 -64,7 -93,21 -29,14 -55,36 -76,66 -21,29 -38,67 -51,113 -13,46 -19,101 -19,164l0 335z"/>
  <path id="5" class="fil2" d="M12299 10353l148 0 0 79 -474 0 0 -79 148 0 0 -683 -148 0 0 -79 326 0 0 762zm-89 -1041c-17,0 -33,-3 -47,-8 -14,-6 -27,-14 -37,-25 -11,-10 -20,-23 -26,-37 -5,-14 -8,-30 -8,-48 0,-17 3,-33 9,-47 6,-15 15,-27 25,-38 11,-10 23,-19 38,-25 14,-5 29,-8 46,-8 16,0 32,2 46,8 15,6 28,14 38,24 11,11 20,23 25,37 6,14 10,31 10,48 0,18 -4,34 -10,49 -6,14 -14,27 -25,37 -11,10 -23,18 -38,24 -14,6 -30,9 -46,9z"/>
  <path id="6" class="fil2" d="M12876 10353l134 0 0 79 -459 0 0 -79 148 0 0 -683 -148 0 0 -79 325 0 0 144 4 0c27,-55 64,-97 109,-126 45,-30 104,-44 176,-44 90,0 157,23 201,69 44,47 66,113 66,199l0 520 143 0 0 79 -454 0 0 -79 134 0 0 -547c0,-52 -13,-91 -37,-115 -24,-25 -58,-37 -103,-37 -33,0 -64,7 -93,21 -29,14 -55,36 -76,66 -21,29 -38,67 -51,113 -12,46 -19,101 -19,164l0 335z"/>
  <path id="7" class="fil2" d="M13841 10645c-11,18 -19,36 -25,53 -5,17 -7,34 -7,51 0,26 6,49 19,70 13,20 32,37 55,51 24,14 52,24 85,31 32,7 68,10 107,10 53,0 101,-6 143,-18 41,-13 77,-30 106,-53 29,-22 51,-48 66,-78 15,-29 23,-62 23,-97 0,-28 -6,-51 -16,-69 -10,-18 -24,-31 -43,-41 -18,-10 -40,-17 -65,-20 -26,-4 -54,-6 -84,-6 -21,0 -46,0 -73,1 -27,0 -53,1 -78,1 -25,1 -47,1 -67,2 -20,0 -34,0 -41,0 -38,0 -70,-4 -98,-14 -27,-9 -50,-21 -68,-38 -19,-16 -32,-36 -41,-58 -9,-22 -13,-46 -13,-72 0,-35 7,-72 23,-111 16,-38 42,-76 77,-116 -28,-29 -48,-63 -63,-102 -14,-38 -22,-79 -22,-123 0,-45 8,-88 24,-129 16,-40 38,-75 68,-106 30,-30 68,-55 111,-73 44,-17 94,-26 150,-26 51,0 97,7 137,22 40,16 75,36 104,63 18,-19 36,-35 53,-48 18,-12 34,-22 49,-29 15,-7 30,-12 43,-14 13,-3 25,-4 35,-4 17,0 31,2 43,7 11,5 21,12 29,20 7,8 13,17 16,28 4,10 6,20 6,31 0,21 -7,39 -20,56 -14,17 -33,26 -57,26 -19,0 -37,-7 -54,-19 -16,-13 -28,-31 -33,-56 -13,6 -25,12 -37,20 -11,7 -23,16 -34,26 20,28 35,58 45,91 10,33 15,67 15,103 0,46 -7,89 -23,130 -16,40 -39,76 -69,107 -31,30 -68,54 -111,72 -43,18 -93,27 -149,27 -40,0 -76,-5 -109,-14 -33,-9 -62,-22 -89,-38 -16,21 -29,41 -38,61 -8,19 -13,37 -13,54 0,21 10,38 28,52 19,14 51,20 96,20 8,0 23,0 45,0 23,0 48,0 76,-1 27,0 55,0 81,0 27,-1 47,-1 62,-1 47,0 90,4 129,13 39,8 72,22 100,42 28,20 50,45 66,78 16,32 24,72 24,120 0,59 -12,112 -36,159 -23,47 -56,86 -99,119 -42,33 -93,58 -151,76 -58,17 -122,26 -191,26 -60,0 -114,-6 -160,-19 -47,-13 -86,-30 -117,-51 -32,-21 -56,-45 -73,-73 -16,-27 -24,-56 -24,-85 0,-29 7,-56 22,-82 15,-27 38,-51 68,-75 12,6 23,12 32,18 10,6 19,13 30,22zm411 -755c0,-46 -3,-86 -8,-118 -5,-33 -13,-59 -25,-79 -13,-20 -29,-35 -50,-44 -20,-9 -47,-13 -79,-13 -32,0 -59,4 -80,13 -21,9 -38,24 -51,45 -13,21 -22,48 -27,81 -6,34 -8,75 -8,122 0,48 2,87 7,120 5,32 14,59 26,79 13,20 29,35 50,44 21,9 47,13 79,13 32,0 59,-5 80,-14 22,-9 38,-24 51,-45 13,-21 22,-48 27,-81 5,-33 8,-74 8,-123z"/>
  <path class="fil3" d="M7333 11021c-72,0 -108,-35 -108,-105l25 0c0,28 7,48 20,61 13,12 34,19 63,19 21,0 38,-5 51,-13 14,-10 21,-23 21,-39 0,-16 -7,-28 -23,-37 -6,-3 -20,-8 -43,-13 -15,-4 -35,-10 -61,-18 -23,-9 -35,-26 -35,-52 0,-13 5,-25 14,-36 14,-18 37,-26 70,-26 58,0 88,28 88,85l-25 0c0,-21 -5,-37 -16,-46 -11,-10 -26,-14 -47,-14 -24,0 -41,5 -51,17 -5,6 -7,13 -7,20 0,14 6,24 17,28 31,9 61,17 91,26 36,13 53,35 53,66 0,26 -11,46 -32,60 -18,11 -40,17 -65,17z"/>
  <path id="1" class="fil3" d="M8087 10904c3,26 15,48 35,66 20,18 43,26 70,26 39,0 70,-19 93,-57l22 13c-28,46 -66,70 -115,70 -36,0 -67,-13 -92,-38 -26,-26 -39,-57 -39,-92 0,-36 13,-67 39,-92 25,-26 56,-38 92,-38 35,0 66,12 91,38 26,25 38,56 38,92l0 12 -234 0zm105 -117c-27,0 -50,9 -70,26 -20,18 -32,40 -35,66l208 0c-3,-26 -14,-48 -34,-66 -20,-17 -43,-26 -69,-26z"/>
  <path id="2" class="fil3" d="M9139 11022l-117 -118 -61 0 0 118 -25 0 0 -260 13 0 138 0c19,0 36,7 50,21 14,14 21,30 21,50 0,19 -7,36 -21,50 -14,14 -30,21 -50,21l-29 0 117 118 -36 0zm-52 -235l-126 0 0 92 126 0c12,0 23,-5 32,-14 9,-9 14,-19 14,-32 0,-13 -5,-24 -14,-33 -9,-9 -20,-13 -32,-13z"/>
  <polygon id="3" class="fil3" points="9868,10983 9950,10762 9977,10762 9880,11022 9857,11022 9751,10762 9780,10762 "/>
  <path id="4" class="fil3" d="M10598 10793c-4,0 -8,-1 -11,-5 -3,-3 -5,-6 -5,-10 0,-5 2,-8 5,-12 3,-3 7,-4 11,-4 5,0 8,1 11,4 3,4 5,7 5,12 0,4 -2,7 -5,10 -3,4 -6,5 -11,5zm-12 229l0 -220 25 0 0 220 -25 0z"/>
  <path id="5" class="fil3" d="M11371 11022c-36,0 -67,-13 -92,-39 -25,-25 -38,-56 -38,-92 0,-35 13,-66 38,-91 25,-26 56,-38 92,-38 48,0 86,22 114,68l-21 13c-23,-38 -54,-56 -93,-56 -29,0 -54,10 -74,31 -20,20 -31,45 -31,74 0,29 11,53 31,74 20,20 45,30 74,30 39,0 71,-19 94,-57l21 13c-28,46 -66,70 -115,70z"/>
  <path id="6" class="fil3" d="M12124 10904c3,26 15,48 35,66 20,18 43,26 70,26 39,0 70,-19 93,-57l22 13c-28,46 -66,70 -115,70 -36,0 -67,-13 -92,-38 -26,-26 -39,-57 -39,-92 0,-36 13,-67 39,-92 25,-26 56,-38 92,-38 35,0 66,12 91,38 26,25 38,56 38,92l0 12 -234 0zm105 -117c-27,0 -50,9 -70,26 -20,18 -32,40 -35,66l208 0c-3,-26 -14,-48 -34,-66 -20,-17 -43,-26 -69,-26z"/>
  <path id="7" class="fil4 str0" d="M7333 11021c-72,0 -108,-35 -108,-105l25 0c0,28 7,48 20,61 13,12 34,19 63,19 21,0 38,-5 51,-13 14,-10 21,-23 21,-39 0,-16 -7,-28 -23,-37 -6,-3 -20,-8 -43,-13 -15,-4 -35,-10 -61,-18 -23,-9 -35,-26 -35,-52 0,-13 5,-25 14,-36 14,-18 37,-26 70,-26 58,0 88,28 88,85l-25 0c0,-21 -5,-37 -16,-46 -11,-10 -26,-14 -47,-14 -24,0 -41,5 -51,17 -5,6 -7,13 -7,20 0,14 6,24 17,28 31,9 61,17 91,26 36,13 53,35 53,66 0,26 -11,46 -32,60 -18,11 -40,17 -65,17z"/>
  <path id="8" class="fil4 str0" d="M8087 10904c3,26 15,48 35,66 20,18 43,26 70,26 39,0 70,-19 93,-57l22 13c-28,46 -66,70 -115,70 -36,0 -67,-13 -92,-38 -26,-26 -39,-57 -39,-92 0,-36 13,-67 39,-92 25,-26 56,-38 92,-38 35,0 66,12 91,38 26,25 38,56 38,92l0 12 -234 0zm105 -117c-27,0 -50,9 -70,26 -20,18 -32,40 -35,66l208 0c-3,-26 -14,-48 -34,-66 -20,-17 -43,-26 -69,-26z"/>
  <path id="9" class="fil4 str0" d="M9139 11022l-117 -118 -61 0 0 118 -25 0 0 -260 13 0 138 0c19,0 36,7 50,21 14,14 21,30 21,50 0,19 -7,36 -21,50 -14,14 -30,21 -50,21l-29 0 117 118 -36 0zm-52 -235l-126 0 0 92 126 0c12,0 23,-5 32,-14 9,-9 14,-19 14,-32 0,-13 -5,-24 -14,-33 -9,-9 -20,-13 -32,-13z"/>
  <polygon id="10" class="fil4 str0" points="9868,10983 9950,10762 9977,10762 9880,11022 9857,11022 9751,10762 9780,10762 "/>
  <path id="11" class="fil4 str0" d="M10598 10793c-4,0 -8,-1 -11,-5 -3,-3 -5,-6 -5,-10 0,-5 2,-8 5,-12 3,-3 7,-4 11,-4 5,0 8,1 11,4 3,4 5,7 5,12 0,4 -2,7 -5,10 -3,4 -6,5 -11,5zm-12 229l0 -220 25 0 0 220 -25 0z"/>
  <path id="12" class="fil4 str0" d="M11371 11022c-36,0 -67,-13 -92,-39 -25,-25 -38,-56 -38,-92 0,-35 13,-66 38,-91 25,-26 56,-38 92,-38 48,0 86,22 114,68l-21 13c-23,-38 -54,-56 -93,-56 -29,0 -54,10 -74,31 -20,20 -31,45 -31,74 0,29 11,53 31,74 20,20 45,30 74,30 39,0 71,-19 94,-57l21 13c-28,46 -66,70 -115,70z"/>
  <path id="13" class="fil4 str0" d="M12124 10904c3,26 15,48 35,66 20,18 43,26 70,26 39,0 70,-19 93,-57l22 13c-28,46 -66,70 -115,70 -36,0 -67,-13 -92,-38 -26,-26 -39,-57 -39,-92 0,-36 13,-67 39,-92 25,-26 56,-38 92,-38 35,0 66,12 91,38 26,25 38,56 38,92l0 12 -234 0zm105 -117c-27,0 -50,9 -70,26 -20,18 -32,40 -35,66l208 0c-3,-26 -14,-48 -34,-66 -20,-17 -43,-26 -69,-26z"/>
  <polygon class="fil3" points="12772,11003 12772,10743 12798,10743 12798,10978 12910,10978 12910,11003 "/>
  <polygon id="1" class="fil3" points="12966,11003 12966,10743 12991,10743 12991,10978 13103,10978 13103,11003 "/>
  <path id="2" class="fil3" d="M13288 11003c-36,0 -66,-12 -91,-38 -26,-25 -38,-56 -38,-92 0,-36 12,-66 38,-92 25,-25 55,-38 91,-38 49,0 87,23 115,68l-21 14c-24,-38 -55,-57 -94,-57 -28,0 -53,11 -74,31 -20,21 -30,46 -30,74 0,29 10,54 30,74 21,21 46,31 74,31 40,0 71,-19 94,-57l22 12c-28,47 -67,70 -116,70z"/>
  <polygon id="3" class="fil4 str0" points="12772,11003 12772,10743 12798,10743 12798,10978 12910,10978 12910,11003 "/>
  <polygon id="4" class="fil4 str0" points="12966,11003 12966,10743 12991,10743 12991,10978 13103,10978 13103,11003 "/>
  <path id="5" class="fil4 str0" d="M13288 11003c-36,0 -66,-12 -91,-38 -26,-25 -38,-56 -38,-92 0,-36 12,-66 38,-92 25,-25 55,-38 91,-38 49,0 87,23 115,68l-21 14c-24,-38 -55,-57 -94,-57 -28,0 -53,11 -74,31 -20,21 -30,46 -30,74 0,29 10,54 30,74 21,21 46,31 74,31 40,0 71,-19 94,-57l22 12c-28,47 -67,70 -116,70z"/>
  <rect class="fil5" x="7068" y="10510" width="6516.28" height="62.1098"/>
  <path class="fil6" d="M6069 10192c-384,720 -1189,871 -1805,313 -377,-341 -436,-1047 -40,-1500 73,-84 289,-269 394,-289 -166,22 -378,174 -497,288 -133,128 -246,306 -299,489 -272,939 581,1731 1458,1480 190,-54 357,-158 496,-291 105,-100 273,-340 293,-490z"/>
  <path class="fil7" d="M3790 9227c449,-841 1388,-1017 2108,-366 440,398 510,1223 47,1752 -85,98 -338,314 -460,338 194,-26 442,-204 580,-337 156,-149 287,-357 349,-570 319,-1098 -678,-2022 -1702,-1729 -222,63 -417,184 -580,340 -122,117 -318,397 -342,572z"/>
  <g id="_2212038489376">
   <path class="fil0" d="M13812 9080l-3 -3c26,-28 39,-60 39,-96 0,-36 -13,-67 -39,-95l3 -4c28,26 60,39 96,39 36,0 67,-13 95,-39l4 4c-26,28 -39,59 -39,95 0,36 13,68 39,96l-4 3c-28,-26 -60,-39 -95,-39 -36,0 -68,13 -96,39z"/>
   <polygon class="fil0" points="13678,8981 13867,8941 13908,8751 13948,8941 14138,8981 13948,9022 13908,9211 13867,9022 "/>
  </g>
  <g id="_2212038488928">
   <path class="fil8" d="M14291 8798l-2 -1c11,-12 17,-26 17,-41 0,-15 -6,-29 -17,-41l2 -1c12,11 25,16 41,16 15,0 28,-5 40,-16l2 1c-11,12 -17,26 -17,41 0,15 6,29 17,41l-2 1c-12,-11 -25,-17 -40,-17 -16,0 -29,6 -41,17z"/>
   <polygon class="fil8" points="14234,8756 14314,8739 14332,8658 14349,8739 14429,8756 14349,8773 14332,8854 14314,8773 "/>
  </g>
 </g>
</svg>
